HIERARCHY
ROOT Hips
{
	OFFSET -3.958830 18.904000 13.208200
	CHANNELS 6 Xposition Yposition Zposition Zrotation Yrotation Xrotation 
	JOINT LHipJoint
	{
		OFFSET 0.000000 0.000000 0.000000
		CHANNELS 3 Zrotation Yrotation Xrotation
		JOINT LeftUpLeg
		{
			OFFSET 1.800000 -1.400000 0.085000
			CHANNELS 3 Zrotation Yrotation Xrotation
			JOINT LeftLeg
			{
				OFFSET 2.215000 -6.000000 0.000000
				CHANNELS 3 Zrotation Yrotation Xrotation
				JOINT LeftFoot
				{
					OFFSET 2.500000 -6.900000 0.000000
					CHANNELS 3 Zrotation Yrotation Xrotation
					JOINT LeftToeBase
					{
						OFFSET 0.200000 -0.500000 1.950000
						CHANNELS 3 Zrotation Yrotation Xrotation
						End Site
						{
							OFFSET 0.000000 0.000000 0.000000
						}
					}
				}
			}
		}
	}
	JOINT RHipJoint
	{
		OFFSET 0.000000 0.000000 0.000000
		CHANNELS 3 Zrotation Yrotation Xrotation
		JOINT RightUpLeg
		{
			OFFSET -1.800000 -1.400000 0.085000
			CHANNELS 3 Zrotation Yrotation Xrotation
			JOINT RightLeg
			{
				OFFSET -2.215000 -6.000000 0.000000
				CHANNELS 3 Zrotation Yrotation Xrotation
				JOINT RightFoot
				{
					OFFSET -2.500000 -6.900000 0.000000
					CHANNELS 3 Zrotation Yrotation Xrotation
					JOINT RightToeBase
					{
						OFFSET -0.200000 -0.500000 1.950000
						CHANNELS 3 Zrotation Yrotation Xrotation
						End Site
						{
							OFFSET 0.000000 0.000000 0.000000
						}
					}
				}
			}
		}
	}
	JOINT LowerBack
	{
		OFFSET 0.000000 0.000000 0.000000
		CHANNELS 3 Zrotation Yrotation Xrotation
		JOINT Spine
		{
			OFFSET -0.087000 1.940000 -0.288900
			CHANNELS 3 Zrotation Yrotation Xrotation
			JOINT Spine1
			{
				OFFSET 0.000000 1.950000 0.060000
				CHANNELS 3 Zrotation Yrotation Xrotation
				JOINT Neck
				{
					OFFSET 0.000000 0.000000 0.000000
					CHANNELS 3 Zrotation Yrotation Xrotation
					JOINT Neck1
					{
						OFFSET 0.000000 1.600000 0.340000
						CHANNELS 3 Zrotation Yrotation Xrotation
						JOINT Head
						{
							OFFSET 0.000000 1.667000 -0.240000
							CHANNELS 3 Zrotation Yrotation Xrotation
							End Site
							{
								OFFSET 0.000000 0.000000 0.000000
							}
						}
					}
				}
				JOINT LeftShoulder
				{
					OFFSET 0.000000 0.000000 0.000000
					CHANNELS 3 Zrotation Yrotation Xrotation
					JOINT LeftArm
					{
						OFFSET 2.700000 1.550000 -0.730000
						CHANNELS 3 Zrotation Yrotation Xrotation
						JOINT LeftForeArm
						{
							OFFSET 5.450000 0.000000 0.000000
							CHANNELS 3 Zrotation Yrotation Xrotation
							JOINT LeftHand
							{
								OFFSET 3.450000 0.000000 0.000000
								CHANNELS 3 Zrotation Yrotation Xrotation
								JOINT LeftHandIndex1
								{
									OFFSET 0.750000 0.000000 0.000000
									CHANNELS 3 Zrotation Yrotation Xrotation
									End Site
									{
										OFFSET 0.000000 0.000000 0.000000
									}
								}
							}
						}
					}
				}
				JOINT RightShoulder
				{
					OFFSET 0.000000 0.000000 0.000000
					CHANNELS 3 Zrotation Yrotation Xrotation
					JOINT RightArm
					{
						OFFSET -2.700000 1.550000 -0.730000
						CHANNELS 3 Zrotation Yrotation Xrotation
						JOINT RightForeArm
						{
							OFFSET -5.450000 0.000000 0.000000
							CHANNELS 3 Zrotation Yrotation Xrotation
							JOINT RightHand
							{
								OFFSET -3.450000 0.000000 0.000000
								CHANNELS 3 Zrotation Yrotation Xrotation
								JOINT RightHandIndex1
								{
									OFFSET -0.750000 0.000000 0.000000
									CHANNELS 3 Zrotation Yrotation Xrotation
									End Site
									{
										OFFSET 0.000000 0.000000 0.000000
									}
								}
							}
						}
					}
				}
			}
		}
	}
}
MOTION
Frames: 13
Frame Time: 0.016667
-0.078340 16.731830 -2.916900 4.585725 -7.089300 -3.500659 -15.061753 14.428641 2.714456 22.226086 0.440712 -2.183649 -4.722151 7.295814 13.640916 0.231278 5.594183 2.808495 0.424510 0.231350 0.103300 18.249743 -9.898454 3.106765 -13.240545 7.109539 -30.241571 3.946047 -9.678542 44.993644 -0.830848 -6.507535 2.137109 -0.063960 0.156000 0.274180 -3.617492 -4.184324 -7.486277 38.677783 -21.388519 28.885139 -25.016101 -9.312652 2.618959 17.409072 -14.550909 -15.382911 -34.249830 9.922061 28.351677 -14.459710 2.836880 -14.243370 -31.613368 -9.149789 2.150399 -34.548690 5.233287 -1.468140 8.611309 6.690728 0.384132 -3.690155 2.952177 0.443700 -0.054150 0.111960 0.309100 -3.400046 22.689404 10.613414 7.736039 5.102750 -13.889921 -130.381355 9.060792 -39.445618 2.020385 -2.434899 0.104440 0.146730 -0.064240 0.043780 
-0.021860 16.769010 -2.969540 4.842866 -5.144452 -3.472162 -15.114076 14.822099 2.672415 19.584058 0.222261 -4.818710 -5.214952 7.953193 18.830099 0.216919 5.734593 2.754482 0.350020 0.154350 0.024590 18.147822 -9.961773 2.990719 -13.084401 6.062669 -29.619243 3.104154 -9.040692 43.386540 -0.740678 -6.142717 2.297252 -0.111310 0.213110 0.262810 -3.422072 -4.859424 -7.431980 37.820188 -21.645493 29.796358 -23.749965 -8.962055 0.932871 17.668236 -13.995409 -16.213254 -33.860103 8.764522 29.479279 -15.100060 2.141990 -13.439970 -32.426386 -10.344457 2.404980 -34.477219 5.694988 -1.645965 8.919286 5.727660 0.286526 -3.695268 2.902911 0.455640 -0.036940 0.097550 0.329530 -2.880278 24.357651 11.285605 9.239145 4.314459 -14.030378 -135.571905 5.115199 -36.256137 1.975569 -2.516157 0.071080 0.192850 -0.027000 0.064970 
0.031330 16.818740 -3.015370 4.456498 -4.591099 -3.253123 -15.140215 14.988369 2.760382 17.281068 -0.145527 -6.449518 -6.389981 8.667307 22.455503 0.343859 5.886324 2.679461 0.378430 0.220840 0.022350 18.091361 -10.020104 2.878511 -12.358633 5.419652 -28.847179 2.364077 -8.144931 41.180079 -0.682929 -5.617050 2.486386 -0.121910 0.147710 0.246150 -3.313404 -5.195437 -7.413401 37.517916 -22.132272 31.029051 -22.958510 -8.567766 -0.427481 17.564514 -13.664359 -16.807249 -33.874291 7.882710 30.913760 -15.601970 1.349690 -14.478000 -32.077857 -11.078166 2.859687 -35.656462 6.270516 -2.251506 9.356924 4.177772 0.256973 -3.564345 2.968641 0.449860 -0.103340 0.157480 0.363930 -2.764775 25.520167 11.616404 11.165734 4.651074 -14.166686 -138.867491 2.327618 -33.185775 2.015950 -2.615125 0.127600 0.166970 -0.090360 0.107630 
0.073740 16.852880 -3.069680 4.413547 -4.214669 -2.682911 -15.127490 14.945716 2.874185 14.245035 -0.672058 -8.009800 -7.743301 9.178752 24.633975 0.459378 5.978094 2.666759 0.338810 0.187320 -0.011390 18.089350 -10.104343 2.839820 -12.419339 4.809110 -28.779966 2.609588 -7.733789 38.800260 -0.581105 -5.189875 2.660424 -0.168900 0.162650 0.213130 -3.331041 -5.137015 -7.418218 36.860541 -21.847108 31.845359 -22.215742 -7.861607 -1.134532 17.114287 -13.552588 -17.444586 -33.881284 6.566820 31.257819 -14.038230 -0.237160 -13.377680 -30.710774 -11.775994 3.333127 -36.901938 5.949065 -2.720410 9.620173 2.392772 0.144691 -3.516315 2.993005 0.411230 -0.116910 0.140170 0.369230 -2.818692 26.578334 12.199375 13.969030 3.233367 -14.842634 -141.105243 2.661332 -37.433033 2.008502 -2.626798 0.144180 0.171120 -0.098700 0.140410 
0.115540 16.904150 -3.153810 3.726865 -2.116088 -3.393168 -15.114257 14.951900 2.983995 11.679959 -1.303758 -9.192547 -7.776798 9.076590 26.224676 0.452965 5.982841 2.684183 0.276900 0.115320 -0.035720 18.065475 -10.327991 2.662509 -12.451272 3.531444 -26.630668 3.770318 -7.842660 35.630143 -0.498771 -4.815106 2.807754 -0.207010 0.176890 0.191150 -3.362849 -5.012658 -7.371109 36.147800 -22.173977 33.007227 -21.222475 -8.429281 0.855335 16.920058 -12.964850 -17.457922 -31.951716 4.823728 31.461334 -14.693240 -1.616310 -14.602880 -29.000549 -13.511326 4.043140 -37.869356 3.646077 -2.824967 10.308178 1.339039 0.025378 -3.509864 2.966614 0.421760 -0.117060 0.125240 0.347880 -4.233712 27.327749 12.504730 16.402691 2.121955 -16.231957 -140.094944 6.252656 -48.923185 1.944048 -2.490897 0.112830 0.206880 -0.063470 0.131860 
0.146390 16.950390 -3.245720 3.075490 -0.662417 -4.105158 -15.217639 15.121598 3.137842 9.315248 -1.789062 -10.255215 -7.713559 8.787875 26.746474 0.352513 5.965949 2.695503 0.222840 0.034440 -0.046720 17.941854 -10.274405 2.544470 -12.428359 2.875245 -24.844496 4.914787 -7.972417 33.457451 -0.457849 -4.591258 2.876947 -0.222320 0.202560 0.201890 -3.092777 -5.577422 -7.430819 33.071548 -21.531087 36.231440 -18.314661 -8.604243 2.130542 17.167204 -12.780669 -16.829765 -30.439253 3.909047 30.698888 -15.425630 -2.258120 -17.478490 -27.308050 -13.973119 4.133939 -39.351184 1.060937 -3.019741 11.324559 -1.009744 -0.373941 -3.534796 2.927284 0.477460 -0.102900 0.112710 0.304560 -6.402115 27.281890 12.039156 16.862991 1.217090 -18.643125 -134.479651 10.178003 -52.812294 1.919585 -2.352028 0.053900 0.253810 0.011210 0.091680 
0.155690 16.981140 -3.334730 2.124824 -0.284302 -3.815073 -15.315289 15.148102 3.263944 7.508057 -2.292112 -12.337731 -7.743972 8.528402 27.042926 0.222536 5.888966 2.691593 0.216790 -0.003500 -0.016860 17.852251 -10.126442 2.564231 -11.826386 3.005030 -24.430962 5.983793 -7.894233 31.584694 -0.411192 -4.371023 2.924202 -0.205090 0.200510 0.225030 -2.843456 -5.943495 -7.534565 30.003990 -19.888898 38.956708 -14.781272 -7.956892 3.156105 16.651227 -12.907427 -15.715684 -28.624105 3.040845 29.111759 -14.670360 -2.731520 -19.723970 -24.674612 -13.110822 3.706600 -42.408969 -1.621542 -3.739081 13.311285 -4.599442 -1.121692 -3.564133 2.945391 0.514440 -0.085100 0.090150 0.249590 -7.948792 26.254925 11.336316 16.843850 1.253401 -20.412824 -127.230685 14.609855 -53.396168 1.921227 -2.234008 0.015630 0.248500 0.061680 0.034510 
0.141660 17.027060 -3.434250 1.110759 -1.214471 -4.108242 -15.420355 15.201136 3.331160 6.670075 -2.466520 -13.722512 -7.753333 8.377391 26.977216 0.137168 5.742792 2.669741 0.286080 0.059140 0.043780 17.767092 -9.917219 2.618030 -10.847003 3.655680 -24.073658 6.808952 -7.632836 30.541760 -0.407630 -4.193395 2.966297 -0.166510 0.110830 0.227790 -2.556042 -6.376251 -7.651531 25.533667 -17.817265 43.851148 -11.189470 -6.811310 3.859388 15.741442 -12.753834 -15.097875 -27.282598 3.290353 28.591972 -12.121250 -2.684970 -22.855160 -20.740828 -12.465232 4.043493 -45.251665 -2.798973 -5.347959 13.205793 -11.726755 -2.412574 -3.443850 3.003258 0.566980 -0.132810 0.110130 0.205510 -9.829909 25.572648 10.545896 16.310237 1.427029 -22.302672 -118.826494 16.476325 -47.977823 1.971026 -2.201322 0.032380 0.190930 0.052150 -0.019940 
0.102040 17.050800 -3.546500 0.441026 -1.684341 -4.126664 -15.571530 15.209406 3.391145 5.964555 -3.026363 -16.254179 -7.085540 8.354829 28.826889 0.169558 5.813931 2.628206 0.298580 0.072290 0.102350 17.659381 -9.589524 2.735971 -10.681888 4.404894 -24.904963 8.557565 -7.958742 30.607468 -0.436261 -4.291164 2.918283 -0.168600 0.102550 0.258070 -2.181905 -6.895934 -7.852271 19.614078 -14.614124 48.722484 -7.355880 -4.930779 4.229047 14.843671 -11.160564 -14.522496 -22.458785 2.625547 28.204548 -11.340370 -1.469690 -22.604830 -16.285335 -10.985220 4.208172 -46.841954 -2.880958 -8.141328 11.542312 -22.334854 -3.988306 -3.384855 3.009726 0.546680 -0.108070 0.130440 0.196670 -12.486370 23.619709 10.172624 19.207396 0.824416 -23.516418 -109.357777 21.282766 -46.051076 2.049661 -2.111474 0.050180 0.157990 0.020440 -0.034540 
0.042930 17.063100 -3.648420 -0.084198 -3.051462 -3.858173 -15.821039 15.283790 3.372540 5.462036 -3.457812 -19.000483 -5.328193 8.287865 31.477293 0.127093 6.006148 2.531172 0.278870 0.064440 0.120680 17.509276 -9.006352 2.890158 -11.050639 5.580705 -26.687561 10.923301 -8.649856 31.765523 -0.458966 -4.665599 2.796935 -0.142390 0.132080 0.256670 -1.593828 -7.865537 -8.071661 11.866284 -9.464181 54.464685 -2.307533 -1.657677 2.865783 13.940163 -8.990543 -13.330344 -16.362068 2.940366 25.566054 -11.708990 1.562900 -22.245990 -11.830572 -5.724964 2.739276 -48.177748 -2.120294 -11.453833 4.451428 -37.234905 -4.191943 -3.403245 3.051004 0.518900 -0.030300 0.086750 0.171650 -15.289331 18.379415 9.427419 21.473975 1.239080 -22.117692 -101.941470 28.328790 -46.705651 2.007931 -1.965510 0.007100 0.144860 0.030850 -0.082620 
-0.006200 17.058160 -3.746410 -0.894304 -3.680550 -3.821265 -15.912539 15.080065 3.278562 5.329221 -3.896421 -21.416831 -2.766459 8.038837 34.694892 0.114222 6.272257 2.456405 0.195670 -0.047700 0.132210 17.503974 -8.620702 3.205822 -12.689463 6.789985 -28.995403 14.699265 -10.173317 33.557787 -0.561667 -5.387264 2.557907 -0.186240 0.176660 0.240530 -1.438893 -7.955847 -8.231561 6.827979 -5.418175 59.160252 -0.518422 1.569871 1.163611 12.759969 -5.309486 -12.713467 -9.157933 1.707593 24.291753 -12.118190 3.618110 -21.958370 -7.920663 -2.306866 2.057717 -44.626692 -0.592363 -12.140893 -13.350596 -49.952935 2.156087 -3.430060 3.216000 0.536900 0.026310 0.051190 0.143860 -17.174785 13.031482 9.498589 25.611167 -2.645324 -20.531261 -100.107813 38.788656 -53.553446 1.932641 -1.685209 -0.072720 0.161050 0.051890 -0.136280 
-0.048760 17.026930 -3.827760 -2.335323 -2.817083 -5.320900 -15.759340 14.630470 3.062868 5.837819 -4.027270 -21.807895 0.031388 7.499302 37.698352 0.174564 6.445523 2.379974 0.197540 -0.012330 0.125580 17.677223 -8.719429 3.589188 -15.083664 7.440366 -29.750700 20.015517 -12.482729 34.871016 -0.786262 -6.374944 2.209218 -0.188100 0.156900 0.239390 -1.903076 -6.778349 -8.218964 6.126795 -4.674333 62.556555 -2.079602 1.794305 2.686049 10.516761 -3.087961 -12.283957 -5.150200 0.507372 23.603565 -9.077830 3.047360 -23.775410 -4.791130 -1.569660 2.518196 -37.238833 1.180053 -11.665404 -34.765944 -61.526480 14.845747 -3.383176 3.507239 0.527220 0.012740 0.070530 0.136040 -16.169041 9.317345 9.292794 26.119093 -6.780512 -19.087205 -105.444289 46.342614 -66.291101 1.900362 -1.457573 -0.046230 0.139450 0.035490 -0.124870 
-0.075480 16.982130 -3.887830 -4.176148 -0.698598 -5.768768 -15.502732 13.789370 2.892921 6.475059 -4.570980 -23.352098 2.456449 6.862676 40.461323 0.170039 6.616038 2.279605 0.163040 -0.052980 0.134550 17.975818 -8.918653 4.163486 -18.819542 7.854953 -31.796186 26.897708 -15.608917 35.660931 -1.097202 -7.519748 1.780845 -0.233120 0.107270 0.257370 -2.700127 -4.757684 -8.303621 9.035442 -6.238687 62.796113 -5.986763 1.035635 6.103811 8.342497 -0.347212 -12.423206 -0.718541 -1.243921 25.235784 -6.336620 2.059750 -27.896550 -2.526623 -3.997397 4.077559 -27.858366 3.054810 -10.679076 -64.262779 -70.404852 37.480622 -3.413578 3.623707 0.599190 -0.037900 0.117340 0.073770 -14.427406 7.445257 9.253979 28.611377 -9.675823 -19.020439 -115.053528 47.262888 -80.395161 1.969928 -1.560259 -0.041770 0.119910 0.074800 -0.152330 
